<?xml version="1.0" encoding="UTF-8" standalone="no"?>
<!-- Created with Inkscape (http://www.inkscape.org/) -->

<svg
   version="1.1"
   id="svg824"
   xml:space="preserve"
   width="133"
   height="50"
   viewBox="0 0 1440 540"
   sodipodi:docname="danbaizhi_v4-banner.svg"
   inkscape:version="1.1 (c4e8f9e, 2021-05-24)"
   inkscape:export-filename="/home/lavie/Downloads/logo-v4-banner.png"
   inkscape:export-xdpi="150"
   inkscape:export-ydpi="150"
   xmlns:inkscape="http://www.inkscape.org/namespaces/inkscape"
   xmlns:sodipodi="http://sodipodi.sourceforge.net/DTD/sodipodi-0.dtd"
   xmlns="http://www.w3.org/2000/svg"
   xmlns:svg="http://www.w3.org/2000/svg"><defs
     id="defs828"><clipPath
       clipPathUnits="userSpaceOnUse"
       id="clipPath838"><path
         d="M 0,1080 H 1080 V 0 H 0 Z"
         id="path836" /></clipPath><clipPath
       clipPathUnits="userSpaceOnUse"
       id="clipPath910"><path
         d="M 0,1080 H 1080 V 0 H 0 Z"
         id="path908" /></clipPath></defs><sodipodi:namedview
     id="namedview826"
     pagecolor="#ffffff"
     bordercolor="#666666"
     borderopacity="1.0"
     inkscape:pageshadow="2"
     inkscape:pageopacity="0.0"
     inkscape:pagecheckerboard="0"
     showgrid="false"
     inkscape:zoom="0.78239463"
     inkscape:cx="1191.8538"
     inkscape:cy="300.999"
     inkscape:window-width="2560"
     inkscape:window-height="1390"
     inkscape:window-x="0"
     inkscape:window-y="0"
     inkscape:window-maximized="1"
     inkscape:current-layer="g830"
     height="540px" /><g
     id="g830"
     inkscape:groupmode="layer"
     inkscape:label="danbaizhi copy"
     transform="matrix(1.3333333,0,0,-1.3333333,0,1440)"><g
       id="g2296"
       transform="matrix(0.88741476,0,0,0.88741476,-42.020488,100.78777)"><g
         id="g872"
         transform="translate(420.90859,871.15631)"><path
           d="m 0,0 c 0,-72.347 -58.648,-130.998 -130.998,-130.998 -72.347,0 -130.999,58.651 -130.999,130.998 0,72.351 58.652,130.999 130.999,130.999 C -58.648,130.999 0,72.351 0,0"
           style="fill:#8c0000;fill-opacity:1;fill-rule:nonzero;stroke:none"
           id="path874" /></g><g
         id="g876"
         transform="translate(334.12929,819.37361)"><path
           d="m 0,0 h -87.819 c -4.778,0 -8.663,-3.886 -8.663,-8.662 0,-4.777 3.885,-8.664 8.663,-8.664 H 0 c 4.776,0 8.662,3.887 8.662,8.664 C 8.662,-3.886 4.776,0 0,0"
           style="fill:#ffffff;fill-opacity:1;fill-rule:nonzero;stroke:none"
           id="path878" /></g><g
         id="g880"
         transform="translate(197.07999,892.60261)"><path
           d="m 0,0 h 186.101 c 2.296,0 4.395,1.058 5.764,2.899 1.376,1.851 1.782,4.182 1.117,6.394 -6.331,21.022 -19.514,39.92 -37.129,53.215 -18.209,13.746 -39.925,21.01 -62.803,21.01 -22.877,0 -44.594,-7.264 -62.802,-21.01 C 12.636,49.213 -0.55,30.315 -6.881,9.293 -7.547,7.081 -7.14,4.75 -5.764,2.899 -4.395,1.058 -2.293,0 0,0 m 16.58,21.73 c 15.463,27.72 44.765,44.941 76.47,44.941 31.709,0 61.009,-17.221 76.472,-44.941 0.589,-1.059 0.575,-2.317 -0.043,-3.367 -0.626,-1.063 -1.73,-1.699 -2.962,-1.699 H 19.586 c -1.23,0 -2.338,0.636 -2.964,1.699 -0.617,1.05 -0.633,2.308 -0.042,3.367"
           style="fill:#ffffff;fill-opacity:1;fill-rule:nonzero;stroke:none"
           id="path882" /></g><g
         id="g884"
         transform="translate(383.25039,850.93171)"><path
           d="m 0,0 h -78.054 c -1.363,0 -2.474,1.111 -2.474,2.477 0,3.684 -2.998,6.683 -6.686,6.683 h -11.703 c -3.685,0 -6.683,-2.999 -6.683,-6.683 0,-1.366 -1.113,-2.477 -2.477,-2.477 h -78.022 c -2.296,0 -4.397,-1.057 -5.763,-2.898 -1.376,-1.849 -1.783,-4.182 -1.117,-6.394 6.327,-21.023 19.515,-39.92 37.129,-53.215 18.208,-13.744 39.927,-21.01 62.802,-21.01 22.878,0 44.592,7.266 62.799,21.01 17.616,13.295 30.8,32.192 37.13,53.215 C 7.549,-7.08 7.14,-4.747 5.765,-2.898 4.398,-1.057 2.297,0 0,0 m -16.582,-21.739 c -15.464,-27.714 -44.766,-44.931 -76.466,-44.931 -31.702,0 -61.002,17.217 -76.468,44.931 -0.589,1.056 -0.571,2.317 0.045,3.366 0.624,1.064 1.731,1.701 2.962,1.701 H -19.59 c 1.232,0 2.339,-0.637 2.962,-1.699 0.617,-1.051 0.635,-2.312 0.046,-3.368"
           style="fill:#ffffff;fill-opacity:1;fill-rule:nonzero;stroke:none"
           id="path886" /></g><g
         id="g888"
         transform="translate(193.13369,864.03131)"><path
           d="m 0,0 c 34.52,8.375 56.252,8.549 96.919,0.783 5.593,-1.199 11.872,-2.658 19.76,-4.585 8.173,-1.995 15.993,-2.853 23.401,-2.853 23.554,0 42.948,8.687 56.25,17.151 1.183,0.753 1.628,2.18 1.078,3.467 -0.553,1.292 -1.888,1.96 -3.246,1.633 h -0.003 C 159.64,7.221 137.906,7.047 97.264,14.807 l -0.051,0.012 C 91.627,16.017 85.357,17.47 77.479,19.394 43.327,27.735 15.315,16.225 -2.17,5.1 -3.353,4.347 -3.795,2.919 -3.248,1.629 -2.697,0.341 -1.367,-0.327 0,0"
           style="fill:#ffffff;fill-opacity:1;fill-rule:nonzero;stroke:none"
           id="path890" /></g><g
         id="g892"
         transform="translate(246.30999,924.08891)"><path
           d="m 0,0 h 87.819 c 4.776,0 8.662,3.886 8.662,8.663 0,4.776 -3.886,8.663 -8.662,8.663 H 0 c -4.777,0 -8.663,-3.887 -8.663,-8.663 C -8.663,3.886 -4.777,0 0,0"
           style="fill:#ffffff;fill-opacity:1;fill-rule:nonzero;stroke:none"
           id="path894" /></g></g><path
       d="m 450.18881,757.61518 h -21.10194 q -1.45313,0 -2.52717,1.07405 -1.01088,1.07406 -1.01088,2.52718 v 41.38254 q 0,1.45312 1.07406,2.52718 1.07405,1.07405 2.52717,1.07405 h 20.97558 q 5.81252,0 9.91917,-4.10667 4.04348,-4.16984 4.04348,-9.85599 v -20.65967 q 0,-5.81251 -4.04348,-9.856 -4.10665,-4.10667 -9.85599,-4.10667 z m -17.43753,7.20245 h 17.37435 q 2.77989,0 4.73846,1.95857 2.02174,2.02175 2.02174,4.80165 v 20.65967 q 0,2.77989 -2.02174,4.73846 -1.95857,2.02174 -4.73846,2.02174 h -17.37435 z"
       id="path1593-1"
       style="font-weight:bold;font-size:51.6661px;font-family:Primus;-inkscape-font-specification:'Primus, Bold';fill:#fff;stroke-width:0.989401;fill-opacity:1" /><path
       d="M 519.98359,757.61518 H 503.361 q -5.16647,0 -8.70438,3.65023 -3.65023,3.53791 -3.65023,8.76055 v 18.36344 q 0,5.11033 3.65023,8.76055 3.53791,3.65023 8.76055,3.65023 h 16.51025 q 1.34778,0 2.2463,-0.95467 0.95468,-0.95468 0.95468,-2.2463 0,-1.34777 -0.95468,-2.30245 -0.89852,-0.89852 -2.2463,-0.89852 h -16.51025 q -2.47093,0 -4.26797,-1.79703 -1.74087,-1.74088 -1.74087,-4.21181 v -5.95268 h 20.89053 q 1.34778,0 2.2463,-0.95467 0.95467,-0.95467 0.95467,-2.30245 0,-1.29162 -0.95467,-2.24629 -0.89852,-0.95468 -2.2463,-0.95468 h -20.89053 v -5.95267 q 0,-2.47093 1.74087,-4.26797 1.79704,-1.74088 4.26797,-1.74088 h 16.51025 q 1.34778,0 2.2463,-0.95467 0.95468,-0.89852 0.95468,-2.24629 0,-1.29162 -0.95468,-2.2463 -0.89852,-0.95467 -2.19013,-0.95467 z"
       id="path1595-1"
       style="font-weight:bold;font-size:51.6661px;font-family:Primus;-inkscape-font-specification:'Primus, Bold';fill:#fff;stroke-width:0.879434;fill-opacity:1" /><path
       d="m 579.0237,757.61518 h -16.62257 q -5.16648,0 -8.70439,3.65023 -3.65023,3.53791 -3.65023,8.76055 v 18.36344 q 0,5.11033 3.65023,8.76055 3.53791,3.65023 8.76055,3.65023 h 16.51026 q 1.34777,0 2.24629,-0.95467 0.95467,-0.95468 0.95467,-2.2463 0,-1.34777 -0.95467,-2.30245 -0.89852,-0.89852 -2.24629,-0.89852 h -16.51026 q -2.47093,0 -4.26796,-1.79703 -1.74088,-1.74088 -1.74088,-4.21181 v -5.95268 h 20.89054 q 1.34777,0 2.24629,-0.95467 0.95468,-0.95467 0.95468,-2.30245 0,-1.29162 -0.95468,-2.24629 -0.89852,-0.95468 -2.24629,-0.95468 h -20.89054 v -5.95267 q 0,-2.47093 1.74088,-4.26797 1.79703,-1.74088 4.26796,-1.74088 h 16.51026 q 1.34777,0 2.24629,-0.95467 0.95467,-0.89852 0.95467,-2.24629 0,-1.29162 -0.95467,-2.2463 -0.89852,-0.95467 -2.19014,-0.95467 z"
       id="path1597-5"
       style="font-weight:bold;font-size:51.6661px;font-family:Primus;-inkscape-font-specification:'Primus, Bold';fill:#fff;stroke-width:0.879434;fill-opacity:1" /><path
       d="m 612.2876,757.61518 q -1.29162,0 -2.2463,0.95467 -0.95467,0.95468 -0.95467,2.2463 v 36.78306 q 0,1.29162 0.95467,2.2463 0.95468,0.95467 2.2463,0.95467 h 18.13882 q 5.11032,0 8.76055,-3.65023 3.65022,-3.65022 3.65022,-8.76055 v -1.51624 q 0,-5.11032 -3.65022,-8.76056 -3.65023,-3.65022 -8.76055,-3.65022 h -14.93786 v -13.64623 q 0,-1.29162 -0.95467,-2.2463 -0.89852,-0.95467 -2.24629,-0.95467 z m 3.20096,23.3053 h 14.93786 q 2.47092,0 4.2118,1.74088 1.74087,1.74088 1.74087,4.2118 v 1.51624 q 0,2.47093 -1.74087,4.21181 -1.74088,1.79703 -4.2118,1.79703 h -14.93786 z"
       id="path1599-0"
       style="font-weight:bold;font-size:51.6661px;font-family:Primus;-inkscape-font-specification:'Primus, Bold';fill:#fff;stroke-width:0.879434;fill-opacity:1" /><path
       d="m 703.6179,757.61532 q -1.38988,0 -2.27435,0.82128 l -22.86991,19.20566 h -1.51623 v -16.48907 q 0,-1.45306 -1.07401,-2.52705 -1.07399,-1.01082 -2.52705,-1.01082 -1.45307,0 -2.52706,1.01082 -1.07401,1.07399 -1.07401,2.52705 v 41.4438 q 0,1.45307 1.07401,2.52707 1.07399,1.074 2.52706,1.074 1.51624,0 2.52705,-1.074 1.07401,-1.074 1.07401,-2.52707 v -17.05766 h 0.69493 l 23.69121,19.83743 q 1.01082,0.8213 2.27435,0.8213 1.64259,0 2.77977,-1.32672 0.94764,-1.07399 0.8213,-2.59023 -0.12636,-1.45306 -1.26353,-2.46388 l -21.35367,-17.94214 21.29048,-17.87896 0.0633,-0.0633 q 1.13718,-0.94765 1.26353,-2.46389 0.12636,-1.45305 -0.82129,-2.59023 -1.074,-1.26353 -2.77977,-1.26353 z"
       id="path1601-0"
       style="font-weight:bold;font-size:51.6661px;font-family:Primus;-inkscape-font-specification:'Primus, Bold';fill:#fff;stroke-width:0.989355;fill-opacity:1" /><path
       d="m 737.35302,757.61518 q -1.29162,0 -2.24629,0.95467 -0.95467,0.95468 -0.95467,2.2463 v 36.78306 q 0,1.29162 0.95467,2.2463 0.95467,0.95467 2.24629,0.95467 1.34778,0 2.2463,-0.95467 0.95468,-0.95468 0.95468,-2.2463 v -36.78306 q 0,-1.29162 -0.95468,-2.2463 -0.89852,-0.95467 -2.2463,-0.95467 z"
       id="path1603-8"
       style="font-weight:bold;font-size:51.6661px;font-family:Primus;-inkscape-font-specification:'Primus, Bold';fill:#fff;stroke-width:0.879434;fill-opacity:1" /><path
       d="m 798.52714,757.61518 q -1.68472,0 -2.6394,1.40393 l -22.01368,29.03335 v -27.23631 q 0,-1.29162 -0.95467,-2.2463 -0.89852,-0.95467 -2.2463,-0.95467 -1.29162,0 -2.24629,0.95467 -0.95467,0.95468 -0.95467,2.2463 v 36.78306 q 0,1.29162 0.95467,2.2463 0.95467,0.95467 2.24629,0.95467 1.46009,0 2.47092,-1.17931 l 22.18216,-29.25798 v 27.23632 q 0,1.29162 0.95467,2.2463 0.95468,0.95467 2.2463,0.95467 1.34778,0 2.24629,-0.95467 0.95468,-0.95468 0.95468,-2.2463 v -36.78306 q 0,-1.29162 -0.95468,-2.2463 -0.89851,-0.95467 -2.24629,-0.95467 z"
       id="path1605-3"
       style="font-weight:bold;font-size:51.6661px;font-family:Primus;-inkscape-font-specification:'Primus, Bold';fill:#fff;stroke-width:0.879434;fill-opacity:1" /><path
       d="m 858.63428,757.61518 q -1.29162,0 -2.24629,0.95467 -0.95468,0.95468 -0.95468,2.2463 v 13.64623 H 835.0482 v -13.64623 q 0,-1.29162 -0.95467,-2.2463 -0.89852,-0.95467 -2.2463,-0.95467 -1.29162,0 -2.24629,0.95467 -0.95469,0.95468 -0.95469,2.2463 v 27.57325 q 0,5.11033 3.65024,8.76055 3.53791,3.65023 8.76054,3.65023 h 8.36745 q 5.16647,0 8.8167,-3.65023 3.59407,-3.70638 3.59407,-8.76055 v -27.57325 q 0,-1.29162 -0.95467,-2.2463 -0.89852,-0.95467 -2.2463,-0.95467 z m -23.58608,23.3053 h 20.38511 v 7.46892 q 0,2.47093 -1.79703,4.21181 -1.74088,1.79703 -4.2118,1.79703 h -8.36745 q -2.47092,0 -4.26795,-1.79703 -1.74088,-1.74088 -1.74088,-4.21181 z"
       id="path1607-7"
       style="font-weight:bold;font-size:51.6661px;font-family:Primus;-inkscape-font-specification:'Primus, Bold';fill:#fff;stroke-width:0.879434;fill-opacity:1" /><path
       d="m 909.47543,757.61518 h -17.07184 q -1.34777,0 -2.30245,0.95467 -0.95467,0.95468 -0.95467,2.2463 0,1.34777 0.95467,2.24629 0.95468,0.95467 2.30245,0.95467 h 17.07184 q 2.58324,0 4.43643,1.8532 1.85319,1.85319 1.85319,4.43643 0,2.58324 -1.85319,4.38027 -1.79704,1.85319 -4.38028,1.85319 h -8.64823 q -4.998,0 -8.59207,3.53792 -3.53791,3.59407 -3.53791,8.59207 0,4.998 3.53791,8.53592 3.59407,3.59407 8.59207,3.59407 h 16.00484 q 1.34778,0 2.30245,-0.95467 0.95469,-0.95468 0.95469,-2.2463 0,-1.34777 -0.95469,-2.30245 -0.95467,-0.89852 -2.30245,-0.89852 h -16.00484 q -2.3586,0 -4.04332,-1.68472 -1.68473,-1.68472 -1.68473,-4.04333 0,-2.3586 1.68473,-4.04333 1.68472,-1.62856 4.04332,-1.62856 h 8.59208 q 5.22262,0 8.98517,-3.76254 3.70639,-3.59407 3.70639,-8.92902 0,-5.2788 -3.70639,-8.98518 -3.70638,-3.70638 -8.98517,-3.70638 z"
       id="path1609-0"
       style="font-weight:bold;font-size:51.6661px;font-family:Primus;-inkscape-font-specification:'Primus, Bold';fill:#fff;stroke-width:0.879434;fill-opacity:1" /><path
       d="m 978.06235,757.61518 h -16.62258 q -5.16647,0 -8.70438,3.65023 -3.65023,3.53791 -3.65023,8.76055 v 18.36344 q 0,5.11033 3.65023,8.76055 3.53791,3.65023 8.76055,3.65023 h 16.51025 q 1.34778,0 2.2463,-0.95467 0.95467,-0.95468 0.95467,-2.2463 0,-1.34777 -0.95467,-2.30245 -0.89852,-0.89852 -2.2463,-0.89852 h -16.51025 q -2.47093,0 -4.26796,-1.79703 -1.74088,-1.74088 -1.74088,-4.21181 v -5.95268 h 20.89054 q 1.34777,0 2.24629,-0.95467 0.95468,-0.95467 0.95468,-2.30245 0,-1.29162 -0.95468,-2.24629 -0.89852,-0.95468 -2.24629,-0.95468 H 955.4871 v -5.95267 q 0,-2.47093 1.74088,-4.26797 1.79703,-1.74088 4.26796,-1.74088 h 16.51025 q 1.34778,0 2.2463,-0.95467 0.95467,-0.89852 0.95467,-2.24629 0,-1.29162 -0.95467,-2.2463 -0.89852,-0.95467 -2.19014,-0.95467 z"
       id="path1611-1"
       style="font-weight:bold;font-size:51.6661px;font-family:Primus;-inkscape-font-specification:'Primus, Bold';fill:#fff;stroke-width:0.879434;fill-opacity:1" /><g
       id="g1042"
       transform="matrix(0.67460046,0,0,-0.67460046,590.54407,932.26995)"
       style="fill:#8c0000;fill-opacity:1"><path
         d="m -113.32349,-40.496304 c -1.56775,5.95806 -4.59917,29.09746 -4.11586,35.4344101 0,0 -53.58306,-0.31327 -69.88916,1.5681 0,0 -8.89776,1.88171 -8.27052,-9.0939101 0,0 -0.59055,-9.88166 -3.8414,-17.08996 -4.50779,-9.99561 -2.15582,-15.32643 7.40834,-16.46308 12.09216,-1.43722 42.25501,-4.15467 59.81523,-1.64642 17.56057,2.5086 20.46111,1.3328 18.89337,7.29086 m -25.94893,117.827775 c -27.9086,12.856633 -39.90304,-2.743553 -44.60663,-4.31165 -4.70358,-1.568097 -16.30609,-8.780286 -15.05161,-33.239425 0,0 0,-10.97562 1.56774,-15.99248 0,0 0.15663,-5.13503 12.22939,-4.70394 10.04782,0.35878 56.75807,-2.92488 68.36058,-0.0511 0,0 5.40949,45.442012 -22.49947,58.298645 m 57.934228,-131.938935 c -5.644444,-9.72115 -15.051969,-23.20466 -32.926158,-18.8147 -17.87384,4.38997 -48.2914,-0.94086 -59.89355,0 -11.60251,0.94051 -25.71362,1.56775 -38.25699,3.13584 -12.54302,1.56775 -15.67886,13.17026 -19.44194,22.26416 -3.76308,9.09355 -0.62724,16.93333 5.95806,39.8247301 6.58531,22.8910499 2.50861,32.6121899 2.50861,32.6121899 -4.70359,32.298921 3.71016,57.224787 27.9086,68.399729 22.10753,10.209385 35.45629,11.524195 60.52115,6.545791 28.22222,-5.604933 47.664154,-40.451616 46.723296,-69.30108 -0.940858,-28.8490999 12.543366,-74.94552 6.898922,-84.66666"
         style="fill:#fff;fill-opacity:1;fill-rule:nonzero;stroke:none;stroke-width:0.352778"
         id="path109" /><path
         d="m -245.02726,142.00817 c 0,0 2.06234,-9.09461 11.55277,-14.11182 10.96151,-5.79508 23.37964,-7.83942 34.44946,-3.13584 11.06946,4.70359 26.12143,12.33558 65.0053,7.10847 38.883868,-5.2271 68.673834,8.41375 73.064153,16.25353 4.39032,7.83943 -8.780286,10.77913 -32.730016,6.31049 -8.680447,-1.6196 -31.494937,-3.10797 -58.521947,3.25332 -29.47635,6.93808 -47.6624,1.39559 -56.75772,0.4706 -18.50143,-1.88171 -37.62974,5.606 -36.062,-16.14875"
         style="fill:#fff;fill-opacity:1;fill-rule:nonzero;stroke:none;stroke-width:0.352778"
         id="path113" /></g><path
       d="m 714.32842,910.08064 c -1.23572,-1.92576 -12.13243,1.13712 -52.38055,-2.10437 0,0 -0.90393,12.38767 -2.89975,17.64215 -1.99592,5.25438 -4.81927,9.43666 1.82118,10.82219 6.64036,1.38525 20.36616,2.89416 22.67796,3.78097 2.3119,0.88651 7.58853,1.61338 14.80568,0.25843 7.21706,-1.35495 19.43479,1.22771 19.50492,-2.80665 0.0473,-2.71238 -2.29372,-25.66695 -3.52944,-27.59272 m -7.49247,-64.68707 c -11.87789,-10.25344 -38.85572,-7.26359 -44.40106,11.94571 -4.64798,16.10093 0.8524,22.38881 0.2443,32.98343 0,0 18.30994,1.00721 30.14691,1.63681 11.83715,0.6298 18.98216,-0.0969 20.42543,-0.48963 1.9178,-0.52183 7.91417,-33.70671 -6.41558,-46.07632 m 34.87631,95.84328 c 1.95288,9.34327 -10.1401,11.24797 -15.01233,11.5861 -4.87203,0.33795 -25.19549,1.04124 -27.04634,10.10654 -1.85074,9.0653 1.92686,10.82374 2.06084,15.26923 0.134,4.4455 -6.94169,9.82289 -13.71015,9.70474 -6.76816,-0.11814 -5.38107,-6.86445 -4.91363,-9.39505 0.46735,-2.5308 -0.22009,-11.64041 -0.76975,-16.51633 -0.54946,-4.87563 -2.79308,-6.59093 -14.03441,-8.07324 -11.32844,-1.4935 -8.81888,1.00865 -14.03674,4.17171 -3.3501,2.03089 -7.49748,-1.86502 -10.67873,-6.57319 -2.54044,-3.76005 -7.69447,-7.47343 -4.77882,-16.94332 2.91584,-9.46988 6.30514,-33.95327 6.30514,-33.95327 0.72355,-4.96582 1.1156,-15.42539 -0.43415,-23.60938 -1.54966,-8.18409 -5.94125,-23.25955 6.82224,-39.32807 12.76319,-16.06833 46.27037,-20.56108 68.01243,-5.58307 21.74216,14.97802 9.94517,48.41245 10.52545,63.65584 0.58008,15.2435 9.73625,36.13748 11.68895,45.48076"
       style="fill:#fff;fill-opacity:1;fill-rule:nonzero;stroke:none;stroke-width:0.237984"
       id="path117" /><g
       id="g1038"
       transform="matrix(0.66100774,0.01153793,0.01153793,-0.66100774,654.14324,929.11591)"
       style="fill:#8c0000;fill-opacity:1"><path
         d="m 265.29274,-15.416257 c -0.47025,-3.76273 2.35197,-16.58056 13.64086,-27.39884 11.28889,-10.81863 17.40358,-10.34838 22.57778,-2.35197 5.17419,7.99642 36.57141,8.46667 47.8603,3.76308 0,0 1.52858,-24.45949 9.05439,-36.68889 7.52616,-12.229741 17.40394,-7.83978 19.91219,-1.35925 2.50896,6.48124 -2.92664,34.07587 -2.29941,36.16643 0,0 20.96982,0.24624 33.30505,1.68557 10.78159,1.258 35.02942,4.85669 39.38023,17.22085 4.45558,12.66048 -28.99304,4.89937 -40.28193,4.27249 -11.28889,-0.62724 -32.89759,-2.90089 -33.86667,2.32586 0,0 -2.5086,20.0691799 -1.88171,25.0863799 0,0 24.78016,0.77364 31.9853,0.35278 9.61672,-0.56198 27.88249,4.0375401 27.67365,7.5910701 -0.2092,3.55388 -13.66696,14.00669 -28.50974,13.3798 -14.84277,-0.62759 -21.27214,-2.44439 -47.03021,0.47026 -28.17671,3.18805 -29.69225,0.36583 -51.43394,4.5466 -21.7417,4.18112 -25.08638,3.85445 -24.24995,-5.34388 0.83609,-9.19798 2.88714,-13.8236 7.6955,-15.28692 4.80836,-1.46368 10.49161,-5.9189101 21.7805,-2.99226 11.28889,2.92699 32.14299,-0.0427 37.199,-1.6721701 0,0 1.04528,-17.35137 1.25377,-22.3689299 0.2092,-5.01721 -1.86831,-3.76273 -7.7216,-3.76273 -5.85364,0 -29.30383,1.97697 -40.13834,3.60609 -12.46364,1.87361 -24.05557,5.9503099 -30.73083,5.3438799 -5.3213,-0.4833 -5.17419,-6.5852999 -5.17419,-6.5852999"
         style="fill:#fff;fill-opacity:1;fill-rule:nonzero;stroke:none;stroke-width:0.352778"
         id="path149" /><path
         d="m 290.32688,71.484892 c 0,0 -1.04528,25.50442 -14.42473,32.821388 -13.3791,7.31661 -23.20466,11.49773 -21.3233,24.24994 1.88136,12.75256 12.1031,18.6062 17.75848,16.72449 5.65538,-1.88137 10.04535,-3.13584 14.22682,-5.01721 4.18112,-1.88171 11.91578,-2.29976 13.37945,-15.88805 1.46332,-13.58865 7.94385,-28.222218 7.73501,-41.183628 -0.2092,-12.96141 -0.62724,-22.78697 -4.18112,-25.92282 -3.55389,-3.13584 -9.61673,-3.76272 -11.49809,1.88172 -1.88136,5.64445 -1.67252,12.33417 -1.67252,12.33417"
         style="fill:#fff;fill-opacity:1;fill-rule:nonzero;stroke:none;stroke-width:0.352778"
         id="path153" /><path
         d="m 327.53841,48.927442 c 0,0 -3.34469,7.71454 -5.43525,42.41729 -2.09056,34.702748 -3.13584,31.776108 2.7178,41.810868 5.85364,10.03441 8.78029,14.42473 23.41386,9.40753 14.63358,-5.01756 23.62306,-3.90984 35.53919,3.06211 11.91613,6.9723 39.51111,31.22224 62.08889,19.51566 22.57777,-11.70728 20.55389,-17.26035 32.6905,-19.61197 11.73339,-2.2733 14.69919,-7.19914 13.65391,-9.2897 -1.04493,-2.09091 -8.08743,-2.45674 -23.55779,-3.91971 -15.46966,-1.46368 -29.05831,6.27133 -53.30825,-3.55424 -24.25065,-9.82521 -39.30262,-14.84277 -68.56977,-11.07969 0,0 -6.48088,1.88137 -6.89857,-3.76308 -0.41839,-5.64444 -1.88171,-52.472158 -2.29976,-56.862478 -0.41804,-4.39032 -5.4356,-25.463499 -10.03476,-8.13259"
         style="fill:#fff;fill-opacity:1;fill-rule:nonzero;stroke:none;stroke-width:0.352778"
         id="path157" /><path
         d="m 337.15503,86.954762 c 0,0 17.97861,-11.07969 25.60073,-22.95631 3.50696,-5.46453 9.31122,-25.335089 13.28314,-28.052889 3.97193,-2.71744 7.10777,-0.67733 7.10777,6.24664 0,6.923619 -4.59917,17.167219 -3.97193,22.184779 0.62724,5.01756 5.64445,15.05197 1.67252,20.27802 -3.97192,5.2264 -8.1534,7.31732 -15.26081,6.89892 -7.10812,-0.41804 -27.38614,15.678858 -27.38614,15.678858 z"
         style="fill:#fff;fill-opacity:1;fill-rule:nonzero;stroke:none;stroke-width:0.352778"
         id="path161" /><path
         d="m 376.03881,103.67896 c 0,0 34.28506,-31.358058 38.04814,-38.883868 3.76273,-7.52616 5.64445,-14.63358 12.33382,-11.28889 6.68972,3.34504 11.49808,12.00891 7.52581,17.50272 -3.97158,5.4931 -10.45246,10.09226 -16.30575,17.61807 -5.85364,7.52616 -13.79784,19.651128 -22.16008,19.651128 -8.3619,0 -22.78663,1.04528 -19.44194,-4.59916"
         style="fill:#fff;fill-opacity:1;fill-rule:nonzero;stroke:none;stroke-width:0.352778"
         id="path165" /></g></g></svg>
